<svg xmlns="http://www.w3.org/2000/svg" viewBox="0 0 64 64" fill="none">
  <!-- Honeycomb hexagon background -->
  <polygon points="32,4 56,18 56,46 32,60 8,46 8,18" fill="url(#hexGrad)" rx="4"/>
  <!-- People icon -->
  <!-- Center person head -->
  <circle cx="32" cy="19" r="5.5" fill="white" opacity="0.95"/>
  <!-- Center person body -->
  <path d="M21 33 Q32 27 43 33" fill="white" opacity="0.95"/>
  <!-- Left person head -->
  <circle cx="20" cy="21" r="4" fill="white" opacity="0.75"/>
  <!-- Right person head -->
  <circle cx="44" cy="21" r="4" fill="white" opacity="0.75"/>
  <!-- Calendar icon -->
  <rect x="22" y="36" width="20" height="16" rx="2.5" fill="white" opacity="0.95"/>
  <rect x="22" y="36" width="20" height="5" rx="2.5" fill="#F5A623"/>
  <rect x="27" y="34.5" width="2.5" height="4" rx="1.25" fill="white"/>
  <rect x="34.5" y="34.5" width="2.5" height="4" rx="1.25" fill="white"/>
  <!-- Calendar grid dots -->
  <rect x="25" y="44" width="2.5" height="2.5" rx="0.5" fill="#F5A623"/>
  <rect x="30.75" y="44" width="2.5" height="2.5" rx="0.5" fill="#F5A623"/>
  <rect x="36.5" y="44" width="2.5" height="2.5" rx="0.5" fill="#F5A623"/>
  <rect x="25" y="48" width="2.5" height="2.5" rx="0.5" fill="#F5A623"/>
  <rect x="30.75" y="48" width="2.5" height="2.5" rx="0.5" fill="#F5A623"/>
  <defs>
    <linearGradient id="hexGrad" x1="8" y1="4" x2="56" y2="60" gradientUnits="userSpaceOnUse">
      <stop offset="0%" stop-color="#FFD000"/>
      <stop offset="100%" stop-color="#F5A623"/>
    </linearGradient>
  </defs>
</svg>